<svg xmlns="http://www.w3.org/2000/svg" viewBox="0 0 399.88 304.73"><defs><style>.cls-1{fill:#f1d5bb;}.cls-2,.cls-3{fill:#fff;}.cls-3{stroke:#fff;stroke-miterlimit:10;}</style></defs><g id="Capa_2" data-name="Capa 2"><path class="cls-1" d="M381.8,199.24h-280c-4,0-7-6-5.26-11.28C118.46,119,176.3,88.9,241.81,88.9S370.65,119,387.06,188C388.35,193.4,385.83,199.24,381.8,199.24Z" transform="translate(-40.89 -88.9)"/><path class="cls-2" d="M195.71,130.77a6,6,0,0,1-8.82.26,7,7,0,0,1-.25-9.42C189,118.93,199.51,111.43,202,114S198.08,128.1,195.71,130.77Z" transform="translate(-40.89 -88.9)"/><path class="cls-2" d="M149.77,174.28a6,6,0,0,1-8.69-1.67,7,7,0,0,1,1.56-9.28c2.83-2.1,14.54-7.16,16.51-4.14S152.6,172.17,149.77,174.28Z" transform="translate(-40.89 -88.9)"/><path class="cls-2" d="M226.26,172.75a6.32,6.32,0,0,1-7,5.74,6.6,6.6,0,0,1-5.37-7.48c.45-3.65,4.82-16.3,8.24-15.82S226.71,169.1,226.26,172.75Z" transform="translate(-40.89 -88.9)"/><path class="cls-2" d="M268.73,129.17a7,7,0,0,1-.27,9.43,6,6,0,0,1-8.82-.29c-2.36-2.68-8.77-14.3-6.26-16.82S266.36,126.49,268.73,129.17Z" transform="translate(-40.89 -88.9)"/><path class="cls-2" d="M304.91,164.55a7,7,0,0,1,.45,9.42,6,6,0,0,1-8.82.47c-2.55-2.46-9.82-13.5-7.51-16.23S302.35,162.08,304.91,164.55Z" transform="translate(-40.89 -88.9)"/><path class="cls-2" d="M345.43,143.74a7,7,0,0,1-1.34,9.32,6,6,0,0,1-8.72-1.42c-2-3-7.08-15.34-4.31-17.52S343.39,140.78,345.43,143.74Z" transform="translate(-40.89 -88.9)"/><path class="cls-1" d="M342.55,236.23c-14.87,0-22.42-5.14-29.08-9.68-6-4.09-10.75-7.32-20.84-7.32s-14.82,3.23-20.83,7.32c-6.66,4.54-14.2,9.68-29.08,9.68s-22.42-5.14-29.08-9.68c-6-4.09-10.75-7.32-20.83-7.32S178,222.46,172,226.55c-6.65,4.54-14.2,9.68-29.07,9.68s-22.42-5.14-29.08-9.68c-5.26-3.58-9.8-6.67-18-7.23-3.28-.22-5.69-2.29-5.38-4.63s3.2-4.06,6.51-3.83c12.35.83,19.14,5.46,25.14,9.55s10.75,7.32,20.83,7.32,14.82-3.23,20.82-7.32c6.66-4.54,14.2-9.68,29.07-9.68s22.42,5.14,29.08,9.68c6,4.09,10.75,7.32,20.83,7.32s14.83-3.23,20.83-7.32c6.66-4.54,14.21-9.68,29.08-9.68s22.43,5.14,29.09,9.68c6,4.09,10.75,7.32,20.83,7.32s14.83-3.23,20.84-7.32,12.8-8.72,25.15-9.55c3.27-.24,6.19,1.49,6.5,3.83s-2.1,4.41-5.38,4.63c-8.22.56-12.76,3.65-18,7.23C365,231.09,357.43,236.23,342.55,236.23Z" transform="translate(-40.89 -88.9)"/><path class="cls-3" d="M41.39,251.23h6v42.59h-6Zm3.52,37.06H56.45c3,0,5.23-.58,6.62-1.73a6,6,0,0,0,2.08-4.86v-.09a8.45,8.45,0,0,0-.75-3.72,5.13,5.13,0,0,0-2.35-2.39,9,9,0,0,0-4.14-.84h-13v-5.39h13a7.12,7.12,0,0,0,5-1.55,6,6,0,0,0,1.68-4.6,5.88,5.88,0,0,0-1.87-4.77q-1.87-1.59-5.63-1.59H44.91v-5.53H58.18a15.32,15.32,0,0,1,6.91,1.4,9.35,9.35,0,0,1,4.16,4,12.87,12.87,0,0,1,1.38,6.15,10,10,0,0,1-.85,4.12,8.54,8.54,0,0,1-2.59,3.28A9.74,9.74,0,0,1,62.87,272a9.33,9.33,0,0,1,4.45,1.83,9.5,9.5,0,0,1,2.87,3.62,11.14,11.14,0,0,1,1,4.68v.09a11.94,11.94,0,0,1-1.53,6.1,10.29,10.29,0,0,1-4.36,4.07,14.47,14.47,0,0,1-6.62,1.43H44.91Z" transform="translate(-40.89 -88.9)"/><path class="cls-3" d="M83.25,292.4A12.22,12.22,0,0,1,78.13,287a19.21,19.21,0,0,1-1.75-8.57V251.23h6v27.39c0,3.1.78,5.51,2.35,7.21a8.54,8.54,0,0,0,6.62,2.55A8.61,8.61,0,0,0,98,285.83c1.58-1.7,2.36-4.11,2.36-7.21V251.23h6v27.18a19.21,19.21,0,0,1-1.76,8.57,12.13,12.13,0,0,1-5.13,5.42,16.53,16.53,0,0,1-8.11,1.86A16.37,16.37,0,0,1,83.25,292.4Z" transform="translate(-40.89 -88.9)"/><path class="cls-3" d="M113.41,251.2h6v42.62h-6ZM116,270.12h14.53a5.58,5.58,0,0,0,3-.82,5.35,5.35,0,0,0,2-2.33,8.83,8.83,0,0,0,0-6.94,5.45,5.45,0,0,0-2-2.33,5.52,5.52,0,0,0-3-.82H116V251.2h14.3a13.44,13.44,0,0,1,6.49,1.52,10.72,10.72,0,0,1,4.33,4.32,14.28,14.28,0,0,1,0,12.92,10.77,10.77,0,0,1-4.35,4.32,13.27,13.27,0,0,1-6.46,1.53H116Zm11.6,4.37,5.95-1.35,10.9,20.68h-7.09Z" transform="translate(-40.89 -88.9)"/><path class="cls-3" d="M178.19,270.88v7.45a18.15,18.15,0,0,1-1.84,8.36,13.42,13.42,0,0,1-5.23,5.6,15.34,15.34,0,0,1-7.84,2,16.26,16.26,0,0,1-7.92-1.86,13,13,0,0,1-5.29-5.26,16,16,0,0,1-1.88-7.88V266.7a18.06,18.06,0,0,1,1.85-8.35,13.33,13.33,0,0,1,5.23-5.59,15.32,15.32,0,0,1,7.84-2,14.76,14.76,0,0,1,6.75,1.56,14.42,14.42,0,0,1,5.17,4.44,16.54,16.54,0,0,1,2.81,6.65h-6.47a9.13,9.13,0,0,0-1.79-3.67,8.54,8.54,0,0,0-3-2.35,8.18,8.18,0,0,0-3.51-.8,8.48,8.48,0,0,0-4.63,1.26,8.24,8.24,0,0,0-3.08,3.53,12.16,12.16,0,0,0-1.08,5.29v12.56a10,10,0,0,0,1.11,4.82,7.85,7.85,0,0,0,3.15,3.21,9.45,9.45,0,0,0,4.7,1.14,8.88,8.88,0,0,0,4.63-1.18A7.86,7.86,0,0,0,171,283.8a12.29,12.29,0,0,0,1.08-5.36V276.6h-8.64v-5.72Z" transform="translate(-40.89 -88.9)"/><path class="cls-3" d="M185,251.23h6v42.59h-6Zm2.9,0h24.46v5.68H187.9Zm0,18.6h21.24v5.68H187.9Zm0,18.31h24.46v5.68H187.9Z" transform="translate(-40.89 -88.9)"/><path class="cls-3" d="M218.57,251.2h6v42.62h-6Zm2.61,18.92h14.53a5.56,5.56,0,0,0,3-.82,5.35,5.35,0,0,0,2-2.33,8.83,8.83,0,0,0,0-6.94,5.49,5.49,0,0,0-2-2.33,5.56,5.56,0,0,0-3-.82H221.18V251.2h14.3a13.44,13.44,0,0,1,6.49,1.52A10.72,10.72,0,0,1,246.3,257a14.28,14.28,0,0,1,0,12.92,10.77,10.77,0,0,1-4.35,4.32,13.27,13.27,0,0,1-6.46,1.53h-14.3Zm11.6,4.37,5.95-1.35,10.9,20.68h-7.09Z" transform="translate(-40.89 -88.9)"/><path class="cls-3" d="M269.24,251.23h6v42.59h-6ZM273,270H296.6v5.68H273Zm20.48-18.78h6v42.59h-6Z" transform="translate(-40.89 -88.9)"/><path class="cls-3" d="M313.92,292.32a13.38,13.38,0,0,1-5.26-5.51,17.57,17.57,0,0,1-1.86-8.25V266.49a17.6,17.6,0,0,1,1.86-8.25,13.29,13.29,0,0,1,5.26-5.5,16.8,16.8,0,0,1,15.71,0,13.27,13.27,0,0,1,5.25,5.5,17.6,17.6,0,0,1,1.86,8.25v12.07a17.57,17.57,0,0,1-1.86,8.25,13.35,13.35,0,0,1-5.25,5.51,16.87,16.87,0,0,1-15.71,0Zm12.5-5.13a8,8,0,0,0,3.1-3.37,11,11,0,0,0,1.1-5.05V266.29a11,11,0,0,0-1.1-5.06,8,8,0,0,0-3.1-3.37,9.73,9.73,0,0,0-9.29,0,8.05,8.05,0,0,0-3.11,3.37,11.15,11.15,0,0,0-1.09,5.06v12.48a11.14,11.14,0,0,0,1.09,5.05,8.05,8.05,0,0,0,3.11,3.37,9.66,9.66,0,0,0,9.29,0Z" transform="translate(-40.89 -88.9)"/><path class="cls-3" d="M349.25,292.4a12.22,12.22,0,0,1-5.12-5.42,19.21,19.21,0,0,1-1.75-8.57V251.23h6v27.39c0,3.1.78,5.51,2.35,7.21a9.92,9.92,0,0,0,13.28,0c1.57-1.7,2.36-4.11,2.36-7.21V251.23h6v27.18a19.21,19.21,0,0,1-1.76,8.57,12.13,12.13,0,0,1-5.13,5.42,18.52,18.52,0,0,1-16.18,0Z" transform="translate(-40.89 -88.9)"/><path class="cls-3" d="M385.8,293.68a22,22,0,0,1-5.14-1.76,21.66,21.66,0,0,1-4.47-2.93l3.72-4.57a16.71,16.71,0,0,0,5.36,3.16,18.45,18.45,0,0,0,6.36,1.06,12.75,12.75,0,0,0,7.18-1.72,5.48,5.48,0,0,0,2.54-4.84v0a5.12,5.12,0,0,0-1.15-3.53,6.91,6.91,0,0,0-3-1.94,33.19,33.19,0,0,0-4.73-1.15.58.58,0,0,0-.19,0,.58.58,0,0,1-.19,0l-.44-.09a45.4,45.4,0,0,1-7-1.66,9.71,9.71,0,0,1-4.59-3.37c-1.26-1.63-1.9-3.95-1.9-6.95v0a12.4,12.4,0,0,1,1.77-6.76,11.2,11.2,0,0,1,5.17-4.26,20.73,20.73,0,0,1,8.18-1.46,19.87,19.87,0,0,1,4.49.5,22.48,22.48,0,0,1,4.37,1.47,24.81,24.81,0,0,1,4.23,2.48L403,260a19.36,19.36,0,0,0-4.84-2.68,13.86,13.86,0,0,0-4.85-.9,11.37,11.37,0,0,0-6.78,1.75,5.69,5.69,0,0,0-2.42,4.93v0a4.7,4.7,0,0,0,1.24,3.46,7.55,7.55,0,0,0,3.11,1.86,47,47,0,0,0,5.17,1.24l.22.05.22,0,.32.06.32.06a35.57,35.57,0,0,1,6.46,1.87,10.13,10.13,0,0,1,4.34,3.5,11.15,11.15,0,0,1,1.74,6.61v.06a11.7,11.7,0,0,1-1.84,6.66,11.46,11.46,0,0,1-5.35,4.22,22,22,0,0,1-8.45,1.45A28,28,0,0,1,385.8,293.68Z" transform="translate(-40.89 -88.9)"/><path class="cls-3" d="M412.9,251.23h6v42.59h-6Zm2.9,0h24.47v5.68H415.8Zm0,18.6H437v5.68H415.8Zm0,18.31h24.47v5.68H415.8Z" transform="translate(-40.89 -88.9)"/><path class="cls-1" d="M370.88,333.86H209.46l-18.93,20.31L171.6,333.86h-57c-6.86,0-12.31,3.53-11.76,7.65,6.6,49.22,78.09,52.12,139.88,52.12,62,0,133.68,0,139.93-52.15C383.15,337.37,377.73,333.86,370.88,333.86Z" transform="translate(-40.89 -88.9)"/><path class="cls-1" d="M374.56,323.11a6.55,6.55,0,0,0,0-13.08H231.67l-12.19,13.08Z" transform="translate(-40.89 -88.9)"/><path class="cls-1" d="M108.92,310a6.55,6.55,0,0,0,0,13.08h52.66L149.39,310Z" transform="translate(-40.89 -88.9)"/></g></svg>