<?xml version="1.0" encoding="utf-8"?>
<!-- Generator: Adobe Illustrator 25.3.0, SVG Export Plug-In . SVG Version: 6.00 Build 0)  -->
<svg version="1.1" id="Capa_1" xmlns="http://www.w3.org/2000/svg" xmlns:xlink="http://www.w3.org/1999/xlink" x="0px" y="0px"
	 viewBox="0 0 1336 972.75" style="enable-background:new 0 0 1336 972.75;" xml:space="preserve">
<style type="text/css">
	.st0{fill:#3C2214;}
	.st1{fill:#FAF9F9;}
	.st2{fill:#F0D4BA;}
</style>
<g>
	<g>
		<path class="st0" d="M1334.29,972.75c-444.74,0-889.48,0-1334.23,0c0-323.79,0-647.58,0-971.38c444.63,0,889.25,0,1334.23,0
			C1334.29,325.71,1334.29,649.23,1334.29,972.75z M665.73,304.24c110.5,0,221,0,331.5,0c2.94,0,5.89,0.05,8.83-0.11
			c29.1-1.61,46.97-18.1,50.66-46.87c1.41-10.96-0.33-21.76-3.2-32.24c-10.87-39.72-32.02-73.72-60.03-103.4
			c-65.04-68.9-147.48-98.99-239.98-105.16c-49.28-3.29-98.7-1.48-148.04-1.2c-45.7,0.26-90.62,6.66-134.01,21.66
			c-68.59,23.72-124.99,63.59-164.7,125.28c-15.67,24.35-27.71,50.16-31.72,79.28c-4.09,29.67,11.14,54.34,38.31,60.84
			c6.4,1.53,12.94,1.94,19.54,1.94C443.83,304.23,554.78,304.24,665.73,304.24z M600.71,853.44c-2.38-1.95-4.47-3.62-6.51-5.34
			c-13.65-11.55-27.34-23.06-40.9-34.71c-2.71-2.33-5.39-3.52-9.09-3.51c-71.54,0.11-143.08,0.03-214.63,0.14
			c-8.38,0.01-16.68,1.27-24.32,5.19c-24.53,12.56-35.86,39.33-28.69,67.28c8.22,32.02,29.68,52.02,58.94,64.67
			c26.69,11.54,55.05,14,83.73,14.01c164.37,0.02,328.73,0.02,493.1,0c28.69,0,57.03-2.52,83.73-13.99
			c29.06-12.48,50.55-32.29,58.78-63.98c9.7-37.36-12.61-73.61-56.08-73.42c-112.74,0.51-225.49,0.22-338.24,0.04
			c-6.09-0.01-10.64,1.62-15.18,5.59C630.74,828.21,615.8,840.64,600.71,853.44z M663.07,418.42c16.75,0.12,26.66-2.94,38.81-11.53
			c5.54-3.92,11-7.97,16.44-12.02c20.56-15.34,43.44-17.69,67.75-12.25c15.38,3.44,26.86,13.67,39.03,22.62
			c24.19,17.78,52.47,17.97,76.73,0.26c4.93-3.6,9.85-7.24,14.8-10.82c27.16-19.63,64.1-19.85,91.46-0.48
			c5.36,3.79,10.52,7.85,15.78,11.78c21.59,16.13,49.94,17,72.36,2.02c6.58-4.4,12.89-9.2,19.25-13.92
			c9.08-6.73,19.08-11.23,30.31-12.76c5.15-0.7,10.35-1.03,15.49-1.79c5.94-0.88,10.19-5.76,9.85-10.9
			c-0.41-6.07-4.73-9.93-11.59-9.86c-11.84,0.12-23.39,1.93-34.57,6.09c-13.61,5.07-24.75,13.97-36.13,22.54
			c-17.98,13.53-37.24,13.44-54.87-0.21c-4.83-3.74-9.75-7.37-14.75-10.89c-33.46-23.61-79.19-23.7-112.74-0.21
			c-5.75,4.02-11.37,8.22-17.03,12.36c-16.13,11.78-34.77,11.94-50.97,0.38c-5.16-3.68-10.27-7.43-15.35-11.21
			c-25.84-19.22-54.62-22.56-85.2-15.57c-17.75,4.06-31.67,15.15-45.72,25.85c-16.49,12.56-36.12,12.73-52.62,0.3
			c-4.88-3.68-9.75-7.37-14.7-10.96c-34.24-24.85-81.35-25-115.67-0.38c-7.17,5.14-13.85,11.15-21.53,15.35
			c-13.38,7.31-27.44,7.29-40.67-0.63c-7.74-4.63-14.71-10.53-22.14-15.71c-33.43-23.33-79.59-23.05-112.76,0.64
			c-6.81,4.87-13.31,10.23-20.43,14.6c-13.88,8.51-28.45,8.69-42.39,0.49c-9.32-5.49-17.68-12.6-26.71-18.62
			c-15.58-10.39-33.1-14.23-51.57-14.2c-5.84,0.01-9.92,4.11-10.43,9.59c-0.48,5.22,3.2,9.94,8.9,10.99
			c3.1,0.58,6.29,0.72,9.44,0.97c11.47,0.89,22.32,3.97,31.99,10.21c7.22,4.65,14,9.98,20.93,15.07
			c23.57,17.3,52.12,17.44,75.67,0.33c4.76-3.46,9.55-6.88,14.23-10.45c21.04-16.07,44.52-18.53,69.53-12.61
			c14.85,3.52,26.42,12.93,37.68,22.24c21.17,17.5,55.75,18.1,77.96-0.16c4.54-3.73,9.46-7,14.24-10.43
			c23.5-16.89,48.9-18.35,75.47-8.97c11.52,4.06,20.45,12.41,30.08,19.49C638.18,413.47,650.58,418.82,663.07,418.42z M675.1,790.39
			c2.32,0.18,3.17,0.3,4.03,0.3c109.53,0.01,219.07,0.01,328.6,0.01c5.29,0,10.36-1,15.12-3.3c12.22-5.93,19.15-20.34,16.17-33.49
			c-3.21-14.15-15.44-23.56-31.53-23.58c-85.77-0.09-171.54-0.04-257.31-0.05c-2.51,0-4.79,0.13-6.93,1.96
			C720.93,751.37,698.54,770.41,675.1,790.39z M526.98,790.7c-23.94-20.34-46.49-39.46-68.97-58.65c-1.73-1.47-3.51-1.79-5.6-1.78
			c-43.46,0.04-86.91-0.15-130.36,0.18c-16.94,0.13-29.85,13.44-30.02,29.62c-0.18,16.57,12.71,29.84,29.95,30.55
			c7.46,0.31,14.94,0.09,22.4,0.09C404.57,790.7,464.76,790.7,526.98,790.7z M124.01,570.85c16.16-11.22,18.3-26.44,13.59-43.14
			c-4.64-16.48-17.82-23.19-33.38-24.18c-17.32-1.11-34.76-0.25-52.53-0.25c0,46.3,0,92.33,0,138.65c18.81,0,37.37,0.99,55.78-0.28
			c18.37-1.27,29.28-11.73,33.01-28.15C144.78,594.62,139.65,580.94,124.01,570.85z M592.16,502.96c0,46.74,0,92.73,0,138.92
			c9.59,0,18.75,0,28.78,0c0-16.7,0-33.04,0-49.31c12.79-0.8,12.78-0.8,17.35,10.2c4.86,11.68,9.72,23.37,14.66,35.02
			c0.74,1.76,0.92,4.34,3.6,4.37c9.58,0.09,19.16,0.03,29.75,0.03c-8.56-19.88-16.57-38.47-24.49-56.86
			c17.23-15.41,22.1-28.07,19.06-48.79c-2.54-17.31-12.93-29.06-30.31-32.11C631.35,501.07,611.89,503.82,592.16,502.96z
			 M745.49,503.36c0,46.63,0,92.47,0,138.5c9.6,0,18.76,0,28.61,0c0-19.72,0-39.07,0-58.72c13.92,0,27.13,0,40.94,0
			c0,19.82,0,39.21,0,58.64c9.77,0,18.92,0,28.19,0c0-46.31,0-92.15,0-138.34c-9.49,0-18.62,0-28.52,0c0,18.56,0,36.75,0,55.22
			c-13.8,0-26.82,0-40.6,0c0-9.47,0-18.68,0-27.89c0-9.16,0-18.32,0-27.42C763.89,503.36,754.9,503.36,745.49,503.36z
			 M301.94,593.04c12.61-2.02,12.61-2.02,17.07,8.65c5.06,12.1,10.13,24.2,15.2,36.3c0.86,2.05,1.31,4.32,4.4,4.29
			c9.21-0.1,18.42-0.03,27.46-0.03c0.95-2.9-0.56-4.56-1.33-6.34c-6.59-15.38-13.17-30.77-19.94-46.07
			c-1.46-3.31-1.79-5.43,1.75-7.85c9.56-6.55,13.91-16.32,15.63-27.49c4.79-31.15-12.31-51.35-43.58-51.42
			c-11.54-0.03-23.09-0.07-34.63,0.04c-3.53,0.03-7.18-0.75-10.59,0.75c0,46.05,0,91.89,0,138.01c9.56,0,18.71,0,28.55,0
			C301.94,625.28,301.94,609.09,301.94,593.04z M448.63,546.41c9.31,0,18.27,0,27.9,0c-1.77-16.36-5.22-31.38-20.52-40.16
			c-31.92-18.32-69.35-0.74-75.35,35.45c-3.05,18.42-2.51,37.06-0.76,55.52c1.66,17.41,8.63,32.41,25.1,41.04
			c19.58,10.26,51.31,6.12,67.81-8.68c1.66-1.49,3.69-2.82,3.69-5.42c0.02-18.28,0.01-36.56,0.01-55.09c-16.5,0-32.38,0-48.54,0
			c0.07,7.22-0.67,13.92,0.53,21.2c6.29,0,12.31,0,18.99,0c0,6.46-0.48,12.34,0.12,18.11c0.76,7.22-3.15,9.67-9.13,10.84
			c-17.09,3.35-27.82-4.6-29.59-22.78c-1.6-16.46-1.34-33-0.04-49.49c0.36-4.53,1.49-8.93,3.56-13.02
			c3.86-7.63,10.77-10.81,20.59-9.59c7.98,0.99,11.93,4.75,13.97,13.43C447.63,540.6,448.07,543.47,448.63,546.41z M862.96,572.45
			c0.22,9.7-0.46,19.41,1.3,29.08c4.68,25.64,22.36,41.77,46.48,42.08c28.62,0.36,46-13.21,51.45-40.68
			c3.24-16.32,2.01-32.87,1.46-49.35c-0.25-7.49-1.77-14.79-4.37-21.85c-7.15-19.44-23.2-31.13-43.13-31.38
			c-24.31-0.31-39.61,9.34-48.07,30.03C862.54,543.96,862.75,558.19,862.96,572.45z M223.31,503.33c0,3.22,0,5.68,0,8.14
			c0,28.28,0,56.55-0.01,84.83c0,4.75-0.08,9.49-1.55,14.1c-1.32,4.16-3.69,7.56-8.02,8.44c-15.43,3.15-23.76-0.77-24.63-16.03
			c-0.16-2.71-0.28-5.42-0.28-8.13c-0.02-28.05,0.01-56.1-0.06-84.15c-0.01-2.36,0.87-4.95-0.86-7.05c-9.3,0-18.45,0-28.24,0
			c0,8.52-0.07,16.62,0.01,24.71c0.27,25.78-1.14,51.6,0.66,77.33c1.53,21.77,14.39,34.76,35.94,37.62
			c5.78,0.77,11.77,0.69,17.61,0.26c21-1.57,34.72-14.54,37.6-35.28c0.56-4.02,0.84-8.1,0.85-12.16c0.07-28.5,0.06-57,0-85.51
			c-0.01-2.37,0.88-4.99-1.08-7.13C242.21,503.33,233.22,503.33,223.31,503.33z M982.21,503.42c0,31.46-0.01,62.22,0.02,92.99
			c0,3.39,0.14,6.79,0.48,10.16c1.85,18.33,12.75,31.27,29.71,35.45c8.47,2.09,17.11,2.24,25.64,1.17
			c13.43-1.69,24.67-7.39,31.26-19.99c3.96-7.59,5.35-15.79,5.34-24.28c-0.02-30.1,0.01-60.21-0.04-90.31
			c0-1.71,0.65-3.63-0.82-5.03c-9.26,0-18.39,0-27.94,0c0,2.99,0,5.46,0,7.93c0,27.84,0.05,55.68-0.05,83.52
			c-0.02,4.51-0.32,9.07-1.12,13.5c-0.93,5.18-3.65,9.52-9.26,10.53c-16.01,2.88-23.23-1.95-23.81-16.34
			c-0.11-2.71-0.31-5.42-0.31-8.13c-0.02-27.84,0-55.68-0.04-83.52c0-2.43,0.58-4.95-0.81-7.65
			C1001.43,503.42,992.27,503.42,982.21,503.42z M1183.02,543.44c-0.45-14.72-5.09-26.86-17.14-35.42
			c-9.94-7.06-21.27-8.35-33.05-7.61c-17.31,1.09-32.42,12.31-36.91,27.42c-4.97,16.71,0.99,33.35,15.81,44.17
			c6.45,4.71,13.62,8.03,21,10.98c5.05,2.02,10.07,4.11,14.44,7.43c6.57,4.98,8.75,15.65,4.87,23.4c-2.85,5.69-10.01,7.88-18.5,6.05
			c-7.36-1.58-11.3-6.2-12.69-13.29c-0.56-2.84-0.85-5.74-1.26-8.61c-9.61,0-18.93,0-28.59,0c0.38,18.32,7.62,32,23.73,40.15
			c14.25,7.21,29.25,7.57,44.19,2.54c11.41-3.84,19.15-11.79,22.46-23.59c5.39-19.21-1.53-37.53-18.21-48.46
			c-5.71-3.74-11.94-6.41-18.26-8.93c-6.32-2.53-12.56-5.27-17.4-10.27c-4.59-4.74-5.49-11.49-2.6-17.62
			c2.76-5.83,7.75-8.04,13.78-8.13c6.65-0.09,11.62,3.5,13.83,9.97c1.07,3.13,1.49,6.49,2.23,9.86
			C1164.1,543.44,1173.27,543.44,1183.02,543.44z M524.82,618.58c0-12.58,0-24.43,0-36.8c14.59,0,28.77,0,43.07,0
			c0-7.84,0-15.15,0-23c-14.65,0-28.81,0-43.08,0c0-10.84,0-21.12,0-32.2c17.23,0,34.07,0,50.83,0c0-8.17,0-15.54,0-23.14
			c-26.74,0-53.09,0-79.55,0c0,46.41,0,92.43,0,138.4c26.89,0,53.28,0,79.91,0c0-7.79,0-15.16,0-23.25
			C558.83,618.58,541.98,618.58,524.82,618.58z M1201.13,503.31c0,46.31,0,92.36,0,138.37c26.92,0,53.45,0,79.87,0
			c0-7.93,0-15.27,0-23.37c-17.3,0-34.13,0-51.11,0c0-12.44,0-24.12,0-36.57c14.64,0,28.98,0,43.27,0c0-7.93,0-15.08,0-22.74
			c-14.56,0-28.73,0-43.06,0c0-10.99,0-21.46,0-32.47c17.2,0,33.87,0,50.56,0c0-8.08,0-15.6,0-23.21
			C1253.91,503.31,1227.71,503.31,1201.13,503.31z"/>
		<path class="st1" d="M1334.29,972.75c0-323.52,0-647.04,0-971.38c-444.97,0-889.6,0-1334.23,0C0.36,0.96-0.62-0.04,0.75,0
			c1.81,0.06,3.62,0.01,5.43,0.01c443.16,0,886.31,0,1329.47,0c0,322.21,0,644.41-0.08,966.62
			C1335.57,968.62,1337.14,971.24,1334.29,972.75z"/>
		<path class="st2" d="M665.73,304.24c-110.95,0-221.9-0.01-332.85,0.03c-6.6,0-13.14-0.41-19.54-1.94
			c-27.16-6.51-42.39-31.17-38.31-60.84c4.01-29.13,16.05-54.93,31.72-79.28c39.71-61.69,96.11-101.56,164.7-125.28
			c43.39-15,88.31-21.4,134.01-21.66c49.35-0.28,98.76-2.09,148.04,1.2c92.5,6.18,174.94,36.26,239.98,105.16
			c28.01,29.67,49.16,63.67,60.03,103.4c2.86,10.47,4.61,21.27,3.2,32.24c-3.7,28.77-21.57,45.26-50.66,46.87
			c-2.94,0.16-5.89,0.11-8.83,0.11C886.73,304.24,776.23,304.24,665.73,304.24z M553.06,231.27c0.05-9.82-5.07-16.31-12.69-17.76
			c-7.25-1.38-15.34,3.19-17,11.14c-2.52,12.02,1.19,23.12,8.2,32.91c2.92,4.09,7.17,3.71,10.36-0.11
			C548.65,249.42,551.42,239.71,553.06,231.27z M816.62,138.99c-0.23-6.35-1.09-12.64-3.64-18.49c-2.9-6.65-7.36-7.65-12.69-2.79
			c-7.2,6.55-11.91,14.87-14.56,24.08c-2.29,7.95,3.36,16.71,10.94,18.41c9.49,2.14,16.97-2.85,18.85-12.48
			C816.07,144.83,816.9,141.99,816.62,138.99z M629.05,174.24c-0.35-2.57-0.79-6.84-1.58-11.05c-0.45-2.43-1.33-4.8-2.25-7.11
			c-2.72-6.8-9.79-10.57-17.05-9.21c-6.33,1.18-11.82,7.79-11.75,14.53c0.11,11.4,7.89,18.23,15.52,24.96
			c3.1,2.74,6.39,6.63,11.24,4.51c5.14-2.25,4.98-7.62,5.85-12.23C629.19,177.78,629.05,176.84,629.05,174.24z M848.16,229.65
			c6.88,0.23,13.58-0.92,19.91-3.46c8.2-3.29,9.11-9.15,2.39-14.93c-6.61-5.68-14.34-9.42-22.72-11.79
			c-6.49-1.83-13.46,1.09-16.81,6.87C824.8,216.93,831.53,231.36,848.16,229.65z M885.59,165.77c2.09,0.19,4.33-0.33,6.26-1.55
			c8.37-5.26,15.41-11.96,19.78-20.87c3.61-7.35,0.81-12.47-7.32-12.46c-9.71,0.02-19.43,1.76-27.82,7.25
			c-5.56,3.64-7.76,10.81-5.76,16.65C873.13,161.76,878.47,165.78,885.59,165.77z M537.96,124.98c0.26,4.49-0.79,9.5,3.95,11.71
			c4.63,2.16,8.93-0.48,12.51-3.25c5.71-4.41,11.16-9.23,15.03-15.43c4.99-7.99,2.82-17.47-4.77-21.84
			c-8.27-4.76-17.22-2.12-21.61,6.81C539.65,109.94,538.1,117.47,537.96,124.98z M695.61,222.35c0.18,1.76,0.22,3.36,0.53,4.9
			c1.98,9.89,6.16,11.54,14.64,5.93c7.17-4.74,12.24-11.43,16.55-18.59c4.56-7.57,1-17.31-7.11-20.99
			c-8.34-3.79-17.2-0.25-20.48,8.39C697.24,208.58,696.7,215.6,695.61,222.35z M672.83,198.44c8.31,0.02,12.91-2.51,15.76-7.76
			c2.68-4.93,2.94-10.3-0.3-14.83c-6.14-8.58-14.92-13.97-24.92-16.66c-8.64-2.33-12.86,2.13-10.72,10.73
			c1.97,7.9,4.9,15.48,9.81,22.2C665.71,196.55,669.99,198.36,672.83,198.44z M436.79,178.09c4.99,0.14,9.89-0.2,14.79-1.35
			c8.64-2.02,13.78-10.33,11.54-19.08c-1.93-7.55-11.03-13.28-18.62-10.52c-9.89,3.6-18.31,9.9-24.4,18.62
			c-3.43,4.91-1.6,8.97,3.97,11.15C428.21,178.56,432.53,177.93,436.79,178.09z"/>
		<path class="st2" d="M600.71,853.44c15.09-12.8,30.03-25.23,44.64-38.03c4.53-3.97,9.08-5.6,15.18-5.59
			c112.75,0.18,225.5,0.47,338.24-0.04c43.48-0.2,65.79,36.06,56.08,73.42c-8.23,31.69-29.72,51.5-58.78,63.98
			c-26.7,11.47-55.05,13.99-83.73,13.99c-164.37,0.01-328.73,0.02-493.1,0c-28.68,0-57.04-2.47-83.73-14.01
			c-29.26-12.65-50.72-32.64-58.94-64.67c-7.17-27.96,4.16-54.72,28.69-67.28c7.64-3.91,15.94-5.18,24.32-5.19
			c71.54-0.11,143.08-0.03,214.63-0.14c3.7-0.01,6.38,1.18,9.09,3.51c13.56,11.65,27.25,23.16,40.9,34.71
			C596.24,849.82,598.33,851.49,600.71,853.44z"/>
		<path class="st2" d="M663.07,418.42c-12.5,0.4-24.89-4.95-36.35-13.38c-9.63-7.08-18.56-15.42-30.08-19.49
			c-26.57-9.38-51.97-7.92-75.47,8.97c-4.78,3.43-9.7,6.7-14.24,10.43c-22.21,18.26-56.79,17.66-77.96,0.16
			c-11.26-9.31-22.83-18.72-37.68-22.24c-25.01-5.92-48.5-3.46-69.53,12.61c-4.68,3.57-9.47,6.99-14.23,10.45
			c-23.55,17.11-52.1,16.97-75.67-0.33c-6.93-5.09-13.72-10.42-20.93-15.07c-9.67-6.24-20.52-9.32-31.99-10.21
			c-3.16-0.24-6.34-0.39-9.44-0.97c-5.7-1.06-9.38-5.78-8.9-10.99c0.51-5.48,4.6-9.57,10.43-9.59c18.47-0.03,35.99,3.81,51.57,14.2
			c9.03,6.02,17.38,13.13,26.71,18.62c13.94,8.2,28.51,8.02,42.39-0.49c7.12-4.36,13.62-9.73,20.43-14.6
			c33.17-23.69,79.33-23.97,112.76-0.64c7.42,5.18,14.4,11.08,22.14,15.71c13.23,7.92,27.29,7.94,40.67,0.63
			c7.68-4.2,14.36-10.2,21.53-15.35c34.32-24.62,81.42-24.47,115.67,0.38c4.95,3.59,9.81,7.28,14.7,10.96
			c16.49,12.43,36.13,12.25,52.62-0.3c14.05-10.7,27.97-21.79,45.72-25.85c30.58-6.99,59.36-3.65,85.2,15.57
			c5.08,3.78,10.19,7.53,15.35,11.21c16.2,11.56,34.84,11.4,50.97-0.38c5.66-4.14,11.29-8.34,17.03-12.36
			c33.55-23.49,79.28-23.4,112.74,0.21c4.99,3.52,9.91,7.15,14.75,10.89c17.64,13.65,36.9,13.74,54.87,0.21
			c11.38-8.57,22.52-17.47,36.13-22.54c11.19-4.17,22.73-5.97,34.57-6.09c6.87-0.07,11.18,3.79,11.59,9.86
			c0.35,5.14-3.91,10.02-9.85,10.9c-5.14,0.76-10.34,1.09-15.49,1.79c-11.23,1.54-21.23,6.04-30.31,12.76
			c-6.36,4.72-12.67,9.52-19.25,13.92c-22.42,14.98-50.77,14.11-72.36-2.02c-5.26-3.93-10.42-7.99-15.78-11.78
			c-27.36-19.37-64.3-19.14-91.46,0.48c-4.95,3.58-9.86,7.21-14.8,10.82c-24.26,17.72-52.54,17.53-76.73-0.26
			c-12.17-8.95-23.64-19.18-39.03-22.62c-24.31-5.44-47.2-3.08-67.75,12.25c-5.44,4.06-10.9,8.1-16.44,12.02
			C689.73,415.49,679.82,418.55,663.07,418.42z"/>
		<path class="st2" d="M675.1,790.39c23.45-19.98,45.84-39.02,68.15-58.16c2.14-1.83,4.42-1.96,6.93-1.96
			c85.77,0.01,171.54-0.04,257.31,0.05c16.09,0.02,28.33,9.43,31.53,23.58c2.98,13.15-3.95,27.57-16.17,33.49
			c-4.76,2.31-9.83,3.3-15.12,3.3c-109.53-0.01-219.07,0-328.6-0.01C678.27,790.69,677.42,790.57,675.1,790.39z"/>
		<path class="st2" d="M526.98,790.7c-62.22,0-122.41,0-182.6,0c-7.47,0-14.95,0.22-22.4-0.09c-17.24-0.71-30.13-13.98-29.95-30.55
			c0.17-16.18,13.08-29.49,30.02-29.62c43.45-0.33,86.91-0.14,130.36-0.18c2.09,0,3.88,0.31,5.6,1.78
			C480.49,751.25,503.04,770.36,526.98,790.7z"/>
		<path class="st1" d="M124.01,570.85c15.63,10.08,20.76,23.76,16.47,42.64c-3.73,16.42-14.64,26.88-33.01,28.15
			c-18.41,1.27-36.97,0.28-55.78,0.28c0-46.32,0-92.35,0-138.65c17.77,0,35.21-0.85,52.53,0.25c15.57,1,28.74,7.71,33.38,24.18
			C142.31,544.41,140.17,559.63,124.01,570.85z M80.7,618.39c6.78,0,12.87,0.21,18.94-0.06c6.36-0.28,10.37-3.85,12.18-9.94
			c1.74-5.84,1.31-11.63-0.52-17.33c-1.51-4.69-4.77-7.68-9.73-8.32c-6.88-0.89-13.77-0.8-20.86-0.03
			C80.7,594.67,80.7,606.09,80.7,618.39z M80.84,526.86c0,11.93,0,23.11,0,35.03c9.75-1.22,20.67,3.27,27.15-6.94
			c4.46-7.04,4.48-15.82-0.45-22.57C100.75,523.09,90.21,527.96,80.84,526.86z"/>
		<path class="st1" d="M592.16,502.96c19.73,0.87,39.19-1.89,58.4,1.47c17.38,3.04,27.77,14.79,30.31,32.11
			c3.04,20.72-1.83,33.38-19.06,48.79c7.92,18.4,15.93,36.98,24.49,56.86c-10.59,0-20.17,0.05-29.75-0.03
			c-2.68-0.02-2.85-2.61-3.6-4.37c-4.94-11.65-9.8-23.33-14.66-35.02c-4.57-10.99-4.56-11-17.35-10.2c0,16.26,0,32.61,0,49.31
			c-10.03,0-19.19,0-28.78,0C592.16,595.69,592.16,549.7,592.16,502.96z M621.16,568.83c10.21-1.57,21.87,3.54,28.26-7.87
			c5.03-8.98,5.23-19.21-0.43-27.86c-6.76-10.34-17.99-4.98-27.83-6.35C621.16,540.88,621.16,554.32,621.16,568.83z"/>
		<path class="st1" d="M745.49,503.36c9.42,0,18.41,0,28.62,0c0,9.1,0,18.26,0,27.42c0,9.21,0,18.42,0,27.89c13.78,0,26.81,0,40.6,0
			c0-18.47,0-36.66,0-55.22c9.91,0,19.04,0,28.52,0c0,46.19,0,92.03,0,138.34c-9.27,0-18.42,0-28.19,0c0-19.42,0-38.82,0-58.64
			c-13.82,0-27.03,0-40.94,0c0,19.65,0,39,0,58.72c-9.85,0-19.01,0-28.61,0C745.49,595.83,745.49,549.99,745.49,503.36z"/>
		<path class="st1" d="M301.94,593.04c0,16.05,0,32.24,0,48.81c-9.84,0-19,0-28.55,0c0-46.12,0-91.96,0-138.01
			c3.41-1.5,7.06-0.71,10.59-0.75c11.54-0.11,23.09-0.06,34.63-0.04c31.27,0.07,48.37,20.27,43.58,51.42
			c-1.72,11.17-6.07,20.94-15.63,27.49c-3.54,2.43-3.21,4.54-1.75,7.85c6.77,15.3,13.35,30.69,19.94,46.07
			c0.77,1.79,2.28,3.45,1.33,6.34c-9.03,0-18.25-0.06-27.46,0.03c-3.09,0.03-3.54-2.24-4.4-4.29c-5.06-12.1-10.14-24.2-15.2-36.3
			C314.55,591.02,314.55,591.02,301.94,593.04z M302.27,568.81c9.72-1.58,20.84,3.55,27.64-6.83c5.83-8.91,5.88-19.35,0.51-28.38
			c-6.63-11.14-18.16-5.41-28.15-6.81C302.27,540.96,302.27,554.38,302.27,568.81z"/>
		<path class="st1" d="M448.63,546.41c-0.56-2.93-0.99-5.81-1.66-8.63c-2.03-8.68-5.99-12.44-13.97-13.43
			c-9.82-1.22-16.73,1.97-20.59,9.59c-2.07,4.09-3.2,8.49-3.56,13.02c-1.3,16.49-1.56,33.03,0.04,49.49
			c1.77,18.18,12.5,26.13,29.59,22.78c5.98-1.17,9.89-3.63,9.13-10.84c-0.61-5.77-0.12-11.65-0.12-18.11c-6.68,0-12.69,0-18.99,0
			c-1.2-7.28-0.46-13.97-0.53-21.2c16.16,0,32.04,0,48.54,0c0,18.53,0.01,36.81-0.01,55.09c0,2.6-2.03,3.93-3.69,5.42
			c-16.51,14.79-48.24,18.94-67.81,8.68c-16.48-8.64-23.45-23.64-25.1-41.04c-1.76-18.46-2.29-37.11,0.76-55.52
			c6-36.19,43.43-53.77,75.35-35.45c15.3,8.78,18.75,23.8,20.52,40.16C466.9,546.41,457.93,546.41,448.63,546.41z"/>
		<path class="st1" d="M862.96,572.45c-0.22-14.26-0.43-28.48,5.13-42.08c8.45-20.69,23.75-30.35,48.07-30.03
			c19.93,0.26,35.98,11.94,43.13,31.38c2.6,7.06,4.11,14.36,4.37,21.85c0.56,16.48,1.78,33.03-1.46,49.35
			c-5.46,27.47-22.83,41.05-51.45,40.68c-24.12-0.31-41.8-16.43-46.48-42.08C862.5,591.86,863.18,582.14,862.96,572.45z
			 M934.96,572.53c0-4.98,0.13-9.96-0.03-14.93c-0.25-7.95-1.02-15.83-4.67-23.09c-3.21-6.38-8.25-9.92-15.62-10.04
			c-11.07-0.18-18.24,4.8-20.54,16.58c-3.93,20.13-3.36,40.48-0.47,60.73c0.43,3.05,1.81,6.08,3.28,8.84
			c2.59,4.84,6.76,7.74,12.26,8.69c12.73,2.21,21.04-3.82,24.22-17.71C935.58,592.01,934.87,582.24,934.96,572.53z"/>
		<path class="st1" d="M223.31,503.33c9.92,0,18.91,0,27.95,0c1.96,2.13,1.07,4.75,1.08,7.13c0.07,28.5,0.08,57,0,85.51
			c-0.01,4.06-0.29,8.14-0.85,12.16c-2.89,20.74-16.6,33.71-37.6,35.28c-5.84,0.44-11.82,0.51-17.61-0.26
			c-21.54-2.86-34.41-15.85-35.94-37.62c-1.81-25.73-0.39-51.55-0.66-77.33c-0.09-8.1-0.01-16.19-0.01-24.71c9.78,0,18.94,0,28.24,0
			c1.73,2.11,0.86,4.69,0.86,7.05c0.07,28.05,0.04,56.1,0.06,84.15c0,2.71,0.12,5.42,0.28,8.13c0.87,15.25,9.2,19.18,24.63,16.03
			c4.33-0.88,6.71-4.28,8.02-8.44c1.46-4.61,1.54-9.35,1.55-14.1c0.01-28.28,0.01-56.55,0.01-84.83
			C223.31,509.01,223.31,506.55,223.31,503.33z"/>
		<path class="st1" d="M982.21,503.42c10.05,0,19.22,0,28.26,0c1.39,2.69,0.81,5.22,0.81,7.65c0.05,27.84,0.02,55.68,0.04,83.52
			c0,2.71,0.2,5.42,0.31,8.13c0.58,14.39,7.8,19.21,23.81,16.34c5.61-1.01,8.33-5.35,9.26-10.53c0.79-4.43,1.1-8.99,1.12-13.5
			c0.1-27.84,0.05-55.68,0.05-83.52c0-2.47,0-4.94,0-7.93c9.55,0,18.69,0,27.94,0c1.47,1.4,0.82,3.32,0.82,5.03
			c0.04,30.1,0.02,60.21,0.04,90.31c0.01,8.5-1.38,16.69-5.34,24.28c-6.58,12.61-17.82,18.31-31.26,19.99
			c-8.53,1.07-17.17,0.92-25.64-1.17c-16.97-4.18-27.86-17.12-29.71-35.45c-0.34-3.37-0.48-6.78-0.48-10.16
			C982.2,565.64,982.21,534.88,982.21,503.42z"/>
		<path class="st1" d="M1183.02,543.44c-9.74,0-18.92,0-28.27,0c-0.74-3.37-1.16-6.72-2.23-9.86c-2.21-6.47-7.18-10.06-13.83-9.97
			c-6.03,0.08-11.02,2.3-13.78,8.13c-2.9,6.13-1.99,12.88,2.6,17.62c4.84,5,11.09,7.75,17.4,10.27c6.31,2.53,12.55,5.19,18.26,8.93
			c16.68,10.93,23.6,29.25,18.21,48.46c-3.31,11.8-11.06,19.75-22.46,23.59c-14.94,5.03-29.94,4.67-44.19-2.54
			c-16.1-8.15-23.35-21.83-23.73-40.15c9.66,0,18.98,0,28.59,0c0.41,2.88,0.7,5.77,1.26,8.61c1.4,7.09,5.33,11.7,12.69,13.29
			c8.49,1.83,15.65-0.36,18.5-6.05c3.88-7.75,1.7-18.42-4.87-23.4c-4.37-3.31-9.39-5.41-14.44-7.43c-7.37-2.94-14.55-6.27-21-10.98
			c-14.82-10.83-20.78-27.46-15.81-44.17c4.49-15.11,19.6-26.33,36.91-27.42c11.77-0.74,23.1,0.55,33.05,7.61
			C1177.93,516.58,1182.57,528.71,1183.02,543.44z"/>
		<path class="st1" d="M524.82,618.58c17.17,0,34.02,0,51.18,0c0,8.1,0,15.46,0,23.25c-26.63,0-53.02,0-79.91,0
			c0-45.97,0-91.99,0-138.4c26.46,0,52.81,0,79.55,0c0,7.6,0,14.97,0,23.14c-16.76,0-33.59,0-50.83,0c0,11.08,0,21.37,0,32.2
			c14.27,0,28.43,0,43.08,0c0,7.84,0,15.16,0,23c-14.3,0-28.48,0-43.07,0C524.82,594.14,524.82,605.99,524.82,618.58z"/>
		<path class="st1" d="M1201.13,503.31c26.58,0,52.77,0,79.51,0c0,7.62,0,15.13,0,23.21c-16.68,0-33.35,0-50.56,0
			c0,11.01,0,21.48,0,32.47c14.33,0,28.5,0,43.06,0c0,7.66,0,14.81,0,22.74c-14.29,0-28.62,0-43.27,0c0,12.45,0,24.13,0,36.57
			c16.98,0,33.81,0,51.11,0c0,8.09,0,15.44,0,23.37c-26.41,0-52.95,0-79.87,0C1201.13,595.67,1201.13,549.62,1201.13,503.31z"/>
		<path class="st1" d="M553.06,231.27c-1.64,8.44-4.41,18.15-11.13,26.18c-3.19,3.82-7.44,4.2-10.36,0.11
			c-7.01-9.79-10.72-20.9-8.2-32.91c1.66-7.95,9.75-12.52,17-11.14C547.99,214.96,553.11,221.44,553.06,231.27z"/>
		<path class="st1" d="M816.62,138.99c0.28,3-0.55,5.84-1.11,8.72c-1.87,9.64-9.36,14.62-18.85,12.48
			c-7.57-1.71-13.23-10.47-10.94-18.41c2.65-9.21,7.37-17.53,14.56-24.08c5.33-4.86,9.79-3.86,12.69,2.79
			C815.53,126.35,816.39,132.63,816.62,138.99z"/>
		<path class="st1" d="M629.05,174.24c0,2.61,0.14,3.54-0.02,4.41c-0.87,4.6-0.71,9.98-5.85,12.23c-4.85,2.12-8.14-1.77-11.24-4.51
			c-7.63-6.73-15.4-13.56-15.52-24.96c-0.07-6.74,5.42-13.35,11.75-14.53c7.27-1.35,14.34,2.41,17.05,9.21
			c0.92,2.3,1.8,4.68,2.25,7.11C628.25,167.4,628.69,171.67,629.05,174.24z"/>
		<path class="st1" d="M848.16,229.64c-16.63,1.72-23.36-12.71-17.23-23.3c3.35-5.79,10.32-8.71,16.81-6.87
			c8.38,2.37,16.11,6.11,22.72,11.79c6.72,5.78,5.81,11.64-2.39,14.93C861.74,228.73,855.04,229.88,848.16,229.64z"/>
		<path class="st1" d="M885.59,165.77c-7.12,0.01-12.46-4.01-14.85-10.98c-2-5.84,0.2-13.01,5.76-16.65
			c8.39-5.49,18.11-7.23,27.82-7.25c8.13-0.02,10.92,5.1,7.32,12.46c-4.37,8.91-11.41,15.61-19.78,20.87
			C889.92,165.44,887.69,165.96,885.59,165.77z"/>
		<path class="st1" d="M537.96,124.98c0.14-7.51,1.69-15.03,5.11-21.99c4.4-8.93,13.34-11.57,21.61-6.81
			c7.59,4.37,9.76,13.85,4.77,21.84c-3.87,6.2-9.32,11.02-15.03,15.43c-3.59,2.77-7.88,5.41-12.51,3.25
			C537.16,134.48,538.22,129.47,537.96,124.98z"/>
		<path class="st1" d="M695.61,222.35c1.09-6.74,1.63-13.77,4.13-20.37c3.28-8.64,12.15-12.18,20.48-8.39
			c8.1,3.69,11.67,13.42,7.11,20.99c-4.32,7.17-9.38,13.85-16.55,18.59c-8.48,5.61-12.66,3.96-14.64-5.93
			C695.83,225.7,695.79,224.11,695.61,222.35z"/>
		<path class="st1" d="M672.83,198.44c-2.84-0.09-7.12-1.9-10.36-6.33c-4.91-6.71-7.84-14.29-9.81-22.2
			c-2.14-8.59,2.08-13.05,10.72-10.73c10,2.69,18.78,8.09,24.92,16.66c3.24,4.53,2.98,9.9,0.3,14.83
			C685.74,195.93,681.14,198.46,672.83,198.44z"/>
		<path class="st1" d="M436.79,178.09c-4.26-0.17-8.57,0.46-12.73-1.17c-5.57-2.18-7.4-6.24-3.97-11.15
			c6.1-8.72,14.51-15.02,24.4-18.62c7.6-2.76,16.69,2.97,18.62,10.52c2.24,8.75-2.9,17.05-11.54,19.08
			C446.68,177.89,441.77,178.23,436.79,178.09z"/>
		<path class="st0" d="M80.7,618.39c0-12.3,0-23.72,0-35.67c7.1-0.76,13.98-0.86,20.86,0.03c4.96,0.64,8.22,3.63,9.73,8.32
			c1.83,5.69,2.26,11.49,0.52,17.33c-1.81,6.08-5.82,9.66-12.18,9.94C93.57,618.6,87.48,618.39,80.7,618.39z"/>
		<path class="st0" d="M80.84,526.86c9.37,1.09,19.91-3.78,26.7,5.53c4.93,6.76,4.91,15.54,0.45,22.57
			c-6.47,10.2-17.4,5.72-27.15,6.94C80.84,549.97,80.84,538.79,80.84,526.86z"/>
		<path class="st0" d="M621.16,568.83c0-14.51,0-27.95,0-42.08c9.84,1.38,21.07-3.99,27.83,6.35c5.66,8.65,5.46,18.88,0.43,27.86
			C643.03,572.38,631.37,567.26,621.16,568.83z"/>
		<path class="st0" d="M302.27,568.81c0-14.43,0-27.85,0-42.02c9.99,1.4,21.52-4.33,28.15,6.81c5.37,9.03,5.32,19.47-0.51,28.38
			C323.11,572.36,311.99,567.23,302.27,568.81z"/>
		<path class="st0" d="M934.96,572.53c-0.09,9.72,0.62,19.48-1.57,29.07c-3.18,13.9-11.49,19.93-24.22,17.71
			c-5.5-0.96-9.67-3.85-12.26-8.69c-1.47-2.75-2.85-5.79-3.28-8.84c-2.89-20.25-3.46-40.6,0.47-60.73
			c2.3-11.78,9.47-16.76,20.54-16.58c7.38,0.12,12.41,3.65,15.62,10.04c3.65,7.26,4.42,15.14,4.67,23.09
			C935.08,562.57,934.96,567.55,934.96,572.53z"/>
	</g>
</g>
</svg>
